{
  "asset": {
    "version": "2.0",
    "generator": "gltfeditor.com"
  },
  "buffers": [
    {
      "uri": "data:application/octet-stream;base64,",
      "byteLength": 796608
    }
  ],
  "bufferViews": [
    {
      "buffer": 0,
      "byteOffset": 0,
      "byteLength": 265536,
      "byteStride": 12,
      "target": 34962
    },
    {
      "buffer": 0,
      "byteOffset": 265536,
      "byteLength": 265536,
      "byteStride": 12,
      "target": 34962
    },
    {
      "buffer": 0,
      "byteOffset": 531072,
      "byteLength": 177024,
      "byteStride": 8,
      "target": 34962
    },
    {
      "buffer": 0,
      "byteOffset": 708096,
      "byteLength": 88512,
      "target": 34963
    }
  ],
  "accessors": [
    {
      "bufferView": 0,
      "byteOffset": 0,
      "componentType": 5126,
      "normalized": false,
      "count": 22128,
      "min": [
        -71.4000015258789,
        -69.6500015258789,
        -0.10014809668064117
      ],
      "max": [
        60.000003814697266,
        0,
        2.1001498699188232
      ],
      "type": "VEC3"
    },
    {
      "bufferView": 1,
      "byteOffset": 0,
      "componentType": 5126,
      "normalized": false,
      "count": 22128,
      "min": [
        -1,
        -1,
        -1
      ],
      "max": [
        1,
        1,
        1
      ],
      "type": "VEC3"
    },
    {
      "bufferView": 2,
      "byteOffset": 0,
      "componentType": 5126,
      "normalized": false,
      "count": 22128,
      "min": [
        0.017393911257386208,
        0.25111979246139526
      ],
      "max": [
        0.9153591394424438,
        0.8473939299583435
      ],
      "type": "VEC2"
    },
    {
      "bufferView": 3,
      "byteOffset": 0,
      "componentType": 5125,
      "normalized": false,
      "count": 22128,
      "min": [
        0
      ],
      "max": [
        22127
      ],
      "type": "SCALAR"
    }
  ],
  "scene": 0,
  "scenes": [
    {
      "nodes": [
        3
      ],
      "name": "result"
    }
  ],
  "nodes": [
    {
      "name": "Screen",
      "matrix": [
        1,
        0,
        0,
        0,
        0,
        1,
        0,
        0,
        0,
        0,
        1,
        0,
        5.700001239776611,
        69.6500015258789,
        -1.0000009536743164,
        1
      ],
      "mesh": 0
    },
    {
      "name": "airport-screen-001",
      "children": [
        0
      ]
    },
    {
      "name": "Texture Group"
    },
    {
      "name": "RootNode",
      "children": [
        1,
        2
      ]
    }
  ],
  "meshes": [
    {
      "primitives": [
        {
          "material": 0,
          "mode": 4,
          "attributes": {
            "POSITION": 0,
            "NORMAL": 1,
            "TEXCOORD_0": 2
          },
          "indices": 3
        }
      ]
    }
  ],
  "materials": [
    {
      "name": "Default",
      "pbrMetallicRoughness": {
        "baseColorFactor": [
          0.5176470588235295,
          0.5176470588235295,
          0.5176470588235295,
          1
        ],
        "metallicFactor": 0,
        "roughnessFactor": 0.5527864098548889
      },
      "emissiveFactor": [
        0,
        0,
        0
      ],
      "alphaMode": "OPAQUE",
      "doubleSided": false
    }
  ]
}