{
  "asset": {
    "version": "2.0",
    "generator": "gltfeditor.com"
  },
  "buffers": [
    {
      "uri": "data:application/octet-stream;base64,",
      "byteLength": 540672
    }
  ],
  "bufferViews": [
    {
      "buffer": 0,
      "byteOffset": 0,
      "byteLength": 540672,
      "byteStride": 32,
      "target": 34962
    }
  ],
  "accessors": [
    {
      "bufferView": 0,
      "byteOffset": 0,
      "componentType": 5126,
      "count": 16896,
      "min": [
        -459.36541748046875,
        0.03407299891114235,
        -459.36566162109375
      ],
      "max": [
        459.3657531738281,
        1725.446533203125,
        459.36566162109375
      ],
      "type": "VEC3"
    },
    {
      "bufferView": 0,
      "byteOffset": 12,
      "componentType": 5126,
      "count": 16896,
      "min": [
        -0.9999979734420776,
        -1,
        -0.9999979734420776
      ],
      "max": [
        0.9999979734420776,
        1,
        0.9999979734420776
      ],
      "type": "VEC3"
    },
    {
      "bufferView": 0,
      "byteOffset": 24,
      "componentType": 5126,
      "count": 16896,
      "min": [
        0.00013600000238511711,
        0.23882600665092468
      ],
      "max": [
        0.9998639822006226,
        0.9973239898681641
      ],
      "type": "VEC2"
    }
  ],
  "scene": 0,
  "scenes": [
    {
      "nodes": [
        1
      ],
      "name": "Vase.obj"
    }
  ],
  "nodes": [
    {
      "name": "C_vase_low",
      "mesh": 0
    },
    {
      "name": "Vase.obj",
      "children": [
        0
      ]
    }
  ],
  "meshes": [
    {
      "primitives": [
        {
          "material": 0,
          "mode": 4,
          "attributes": {
            "POSITION": 0,
            "NORMAL": 1,
            "TEXCOORD_0": 2
          }
        }
      ]
    }
  ],
  "materials": [
    {
      "name": "",
      "pbrMetallicRoughness": {
        "baseColorFactor": [
          0.9333333333333333,
          0.9333333333333333,
          0.9333333333333333,
          1
        ],
        "metallicFactor": 1,
        "roughnessFactor": 1
      },
      "emissiveFactor": [
        0,
        0,
        0
      ],
      "alphaMode": "OPAQUE",
      "doubleSided": false,
      "extensions": {
        "KHR_materials_volume": {
          "thicknessFactor": 1,
          "attenuationColor": [
            1,
            1,
            1
          ],
          "attenuationDistance": null
        }
      }
    }
  ],
  "extensionsUsed": [
    "KHR_materials_volume"
  ]
}