{
  "asset": {
    "version": "2.0",
    "generator": "gltfeditor.com"
  },
  "buffers": [
    {
      "uri": "data:application/octet-stream;base64,",
      "byteLength": 63504
    },
    {
      "uri": "data:application/octet-stream;base64,",
      "byteLength": 66096
    },
    {
      "uri": "data:application/octet-stream;base64,",
      "byteLength": 95904
    },
    {
      "uri": "data:application/octet-stream;base64,",
      "byteLength": 188352
    }
  ],
  "bufferViews": [
    {
      "buffer": 0,
      "byteOffset": 0,
      "byteLength": 21168,
      "byteStride": 12,
      "target": 34962
    },
    {
      "buffer": 0,
      "byteOffset": 21168,
      "byteLength": 21168,
      "byteStride": 12,
      "target": 34962
    },
    {
      "buffer": 0,
      "byteOffset": 42336,
      "byteLength": 14112,
      "byteStride": 8,
      "target": 34962
    },
    {
      "buffer": 0,
      "byteOffset": 56448,
      "byteLength": 7056,
      "target": 34963
    },
    {
      "buffer": 1,
      "byteOffset": 0,
      "byteLength": 22032,
      "byteStride": 12,
      "target": 34962
    },
    {
      "buffer": 1,
      "byteOffset": 22032,
      "byteLength": 22032,
      "byteStride": 12,
      "target": 34962
    },
    {
      "buffer": 1,
      "byteOffset": 44064,
      "byteLength": 14688,
      "byteStride": 8,
      "target": 34962
    },
    {
      "buffer": 1,
      "byteOffset": 58752,
      "byteLength": 7344,
      "target": 34963
    },
    {
      "buffer": 2,
      "byteOffset": 0,
      "byteLength": 31968,
      "byteStride": 12,
      "target": 34962
    },
    {
      "buffer": 2,
      "byteOffset": 31968,
      "byteLength": 31968,
      "byteStride": 12,
      "target": 34962
    },
    {
      "buffer": 2,
      "byteOffset": 63936,
      "byteLength": 21312,
      "byteStride": 8,
      "target": 34962
    },
    {
      "buffer": 2,
      "byteOffset": 85248,
      "byteLength": 10656,
      "target": 34963
    },
    {
      "buffer": 3,
      "byteOffset": 0,
      "byteLength": 62784,
      "byteStride": 12,
      "target": 34962
    },
    {
      "buffer": 3,
      "byteOffset": 62784,
      "byteLength": 62784,
      "byteStride": 12,
      "target": 34962
    },
    {
      "buffer": 3,
      "byteOffset": 125568,
      "byteLength": 41856,
      "byteStride": 8,
      "target": 34962
    },
    {
      "buffer": 3,
      "byteOffset": 167424,
      "byteLength": 20928,
      "target": 34963
    }
  ],
  "accessors": [
    {
      "bufferView": 0,
      "byteOffset": 0,
      "componentType": 5126,
      "normalized": false,
      "count": 1764,
      "min": [
        -1.0967649221420288,
        0,
        -2.035834789276123
      ],
      "max": [
        1.0967649221420288,
        2.1935276985168457,
        2.035834789276123
      ],
      "type": "VEC3"
    },
    {
      "bufferView": 1,
      "byteOffset": 0,
      "componentType": 5126,
      "normalized": false,
      "count": 1764,
      "min": [
        -1,
        -1,
        -1
      ],
      "max": [
        1,
        1,
        1
      ],
      "type": "VEC3"
    },
    {
      "bufferView": 2,
      "byteOffset": 0,
      "componentType": 5126,
      "normalized": false,
      "count": 1764,
      "min": [
        0.8831594586372375,
        0.010756075382232666
      ],
      "max": [
        0.9761441946029663,
        0.3167204260826111
      ],
      "type": "VEC2"
    },
    {
      "bufferView": 3,
      "byteOffset": 0,
      "componentType": 5125,
      "normalized": false,
      "count": 1764,
      "min": [
        0
      ],
      "max": [
        1763
      ],
      "type": "SCALAR"
    },
    {
      "bufferView": 4,
      "byteOffset": 0,
      "componentType": 5126,
      "normalized": false,
      "count": 1836,
      "min": [
        -1.0967642068862915,
        0,
        -2.035834789276123
      ],
      "max": [
        1.0967642068862915,
        2.1935276985168457,
        2.035834789276123
      ],
      "type": "VEC3"
    },
    {
      "bufferView": 5,
      "byteOffset": 0,
      "componentType": 5126,
      "normalized": false,
      "count": 1836,
      "min": [
        -1,
        -1,
        -1
      ],
      "max": [
        1,
        1,
        1
      ],
      "type": "VEC3"
    },
    {
      "bufferView": 6,
      "byteOffset": 0,
      "componentType": 5126,
      "normalized": false,
      "count": 1836,
      "min": [
        0.911713719367981,
        0.02728748321533203
      ],
      "max": [
        0.9761441946029663,
        0.3167204260826111
      ],
      "type": "VEC2"
    },
    {
      "bufferView": 7,
      "byteOffset": 0,
      "componentType": 5125,
      "normalized": false,
      "count": 1836,
      "min": [
        0
      ],
      "max": [
        1835
      ],
      "type": "SCALAR"
    },
    {
      "bufferView": 8,
      "byteOffset": 0,
      "componentType": 5126,
      "normalized": false,
      "count": 2664,
      "min": [
        -25,
        0,
        -0.236357182264328
      ],
      "max": [
        25,
        34.000003814697266,
        0.236357182264328
      ],
      "type": "VEC3"
    },
    {
      "bufferView": 9,
      "byteOffset": 0,
      "componentType": 5126,
      "normalized": false,
      "count": 2664,
      "min": [
        -1,
        -1,
        -1
      ],
      "max": [
        1,
        1,
        1
      ],
      "type": "VEC3"
    },
    {
      "bufferView": 10,
      "byteOffset": 0,
      "componentType": 5126,
      "normalized": false,
      "count": 2664,
      "min": [
        0.009999999776482582,
        0.23051667213439941
      ],
      "max": [
        0.9776883125305176,
        0.9900000095367432
      ],
      "type": "VEC2"
    },
    {
      "bufferView": 11,
      "byteOffset": 0,
      "componentType": 5125,
      "normalized": false,
      "count": 2664,
      "min": [
        0
      ],
      "max": [
        2663
      ],
      "type": "SCALAR"
    },
    {
      "bufferView": 12,
      "byteOffset": 0,
      "componentType": 5126,
      "normalized": false,
      "count": 5232,
      "min": [
        -25.000003814697266,
        0,
        -0.5094059109687805
      ],
      "max": [
        25.000003814697266,
        34.000003814697266,
        0.5094059109687805
      ],
      "type": "VEC3"
    },
    {
      "bufferView": 13,
      "byteOffset": 0,
      "componentType": 5126,
      "normalized": false,
      "count": 5232,
      "min": [
        -1,
        -1,
        -1
      ],
      "max": [
        1,
        1,
        1
      ],
      "type": "VEC3"
    },
    {
      "bufferView": 14,
      "byteOffset": 0,
      "componentType": 5126,
      "normalized": false,
      "count": 5232,
      "min": [
        0.009999999776482582,
        0.009999990463256836
      ],
      "max": [
        0.9888689517974854,
        0.9900000095367432
      ],
      "type": "VEC2"
    },
    {
      "bufferView": 15,
      "byteOffset": 0,
      "componentType": 5125,
      "normalized": false,
      "count": 5232,
      "min": [
        0
      ],
      "max": [
        5231
      ],
      "type": "SCALAR"
    }
  ],
  "scene": 0,
  "scenes": [
    {
      "nodes": [
        5
      ],
      "name": "result"
    }
  ],
  "nodes": [
    {
      "name": "metal-holders-r",
      "matrix": [
        1,
        0,
        0,
        0,
        0,
        1,
        0,
        0,
        0,
        0,
        1,
        0,
        19.037166595458984,
        -1.0967609882354736,
        -0.15644225478172302,
        1
      ],
      "mesh": 0
    },
    {
      "name": "metal-holders-l",
      "matrix": [
        1,
        0,
        0,
        0,
        0,
        1,
        0,
        0,
        0,
        0,
        1,
        0,
        -19.00706672668457,
        -1.0967609882354736,
        -0.1564396619796753,
        1
      ],
      "mesh": 1
    },
    {
      "name": "metal-frame",
      "matrix": [
        1,
        0,
        0,
        0,
        0,
        1,
        0,
        0,
        0,
        0,
        1,
        0,
        0.01359433215111494,
        -17.00000762939453,
        -2.526165246963501,
        1
      ],
      "mesh": 2
    },
    {
      "name": "acrylic-frame",
      "matrix": [
        1,
        0,
        0,
        0,
        0,
        1,
        0,
        0,
        0,
        0,
        1,
        0,
        0.013595819473266602,
        -17.00000762939453,
        0.8041555285453796,
        1
      ],
      "mesh": 3
    },
    {
      "name": "office-sign-002",
      "children": [
        0,
        1,
        2,
        3
      ],
      "matrix": [
        1,
        0,
        0,
        0,
        0,
        1,
        0,
        0,
        0,
        0,
        1,
        0,
        -0.013595822267234325,
        17.000003814697266,
        4.790626525878906,
        1
      ]
    },
    {
      "name": "RootNode",
      "children": [
        4
      ]
    }
  ],
  "meshes": [
    {
      "primitives": [
        {
          "material": 0,
          "mode": 4,
          "attributes": {
            "POSITION": 0,
            "NORMAL": 1,
            "TEXCOORD_0": 2
          },
          "indices": 3
        }
      ]
    },
    {
      "primitives": [
        {
          "material": 0,
          "mode": 4,
          "attributes": {
            "POSITION": 4,
            "NORMAL": 5,
            "TEXCOORD_0": 6
          },
          "indices": 7
        }
      ]
    },
    {
      "primitives": [
        {
          "material": 0,
          "mode": 4,
          "attributes": {
            "POSITION": 8,
            "NORMAL": 9,
            "TEXCOORD_0": 10
          },
          "indices": 11
        }
      ]
    },
    {
      "primitives": [
        {
          "material": 0,
          "mode": 4,
          "attributes": {
            "POSITION": 12,
            "NORMAL": 13,
            "TEXCOORD_0": 14
          },
          "indices": 15
        }
      ]
    }
  ],
  "materials": [
    {
      "name": "Material.001",
      "pbrMetallicRoughness": {
        "baseColorFactor": [
          0.5176470588235295,
          0.5176470588235295,
          0.5176470588235295,
          1
        ],
        "metallicFactor": 0,
        "roughnessFactor": 1
      },
      "emissiveFactor": [
        0,
        0,
        0
      ],
      "alphaMode": "OPAQUE",
      "doubleSided": false
    }
  ]
}