{
  "asset": {
    "generator": "gltfeditor.com",
    "version": "2.0"
  },
  "buffers": [
    {
      "uri": "data:application/octet-stream;base64,",
      "byteLength": 1513400
    }
  ],
  "bufferViews": [
    {
      "buffer": 0,
      "byteOffset": 0,
      "byteLength": 482232,
      "byteStride": 12,
      "target": 34962
    },
    {
      "buffer": 0,
      "byteOffset": 482232,
      "byteLength": 482232,
      "byteStride": 12,
      "target": 34962
    },
    {
      "buffer": 0,
      "byteOffset": 964464,
      "byteLength": 321488,
      "byteStride": 8,
      "target": 34962
    },
    {
      "buffer": 0,
      "byteOffset": 1285952,
      "byteLength": 227448,
      "target": 34963
    }
  ],
  "accessors": [
    {
      "bufferView": 0,
      "byteOffset": 0,
      "componentType": 5126,
      "normalized": false,
      "count": 40186,
      "min": [
        -0.6710033416748047,
        -0.3784816563129425,
        -2.273956537246704
      ],
      "max": [
        8.077726364135742,
        0.14769288897514343,
        2.0604050159454346
      ],
      "type": "VEC3"
    },
    {
      "bufferView": 1,
      "byteOffset": 0,
      "componentType": 5126,
      "normalized": false,
      "count": 40186,
      "min": [
        -0.9998618364334106,
        -1,
        -0.997218906879425
      ],
      "max": [
        0.9998618364334106,
        1,
        0.997218906879425
      ],
      "type": "VEC3"
    },
    {
      "bufferView": 2,
      "byteOffset": 0,
      "componentType": 5126,
      "normalized": false,
      "count": 40186,
      "min": [
        0,
        0
      ],
      "max": [
        1,
        1
      ],
      "type": "VEC2"
    },
    {
      "bufferView": 3,
      "byteOffset": 0,
      "componentType": 5123,
      "normalized": false,
      "count": 113724,
      "min": [
        0
      ],
      "max": [
        40185
      ],
      "type": "SCALAR"
    }
  ],
  "scene": 0,
  "scenes": [
    {
      "nodes": [
        2,
        3
      ],
      "name": "Scene"
    }
  ],
  "nodes": [
    {
      "name": "airport-screen-001"
    },
    {
      "name": "Texture Group"
    },
    {
      "name": "RootNode",
      "children": [
        0,
        1
      ]
    },
    {
      "name": "Text",
      "matrix": [
        15.119671821594238,
        0.39439186453819275,
        0.30774426460266113,
        0,
        -0.4127044677734375,
        15.093487739562988,
        0.933265745639801,
        0,
        -0.30812788009643555,
        -1.0257580280303955,
        16.45308494567871,
        0,
        -53.15869903564453,
        2.6065409183502197,
        -0.17823028564453125,
        1
      ],
      "mesh": 0
    }
  ],
  "meshes": [
    {
      "primitives": [
        {
          "material": 0,
          "mode": 4,
          "attributes": {
            "POSITION": 0,
            "NORMAL": 1,
            "TEXCOORD_0": 2
          },
          "indices": 3
        }
      ]
    }
  ],
  "materials": [
    {
      "name": "Default",
      "pbrMetallicRoughness": {
        "baseColorFactor": [
          1,
          0.8156862745098039,
          0.5137254901960784,
          1
        ],
        "metallicFactor": 0.5,
        "roughnessFactor": 0.30000001192092896
      },
      "emissiveFactor": [
        0,
        0,
        0
      ],
      "alphaMode": "OPAQUE",
      "doubleSided": false
    }
  ]
}