{
  "asset": {
    "generator": "gltfeditor.com",
    "version": "2.0"
  },
  "buffers": [
    {
      "uri": "data:application/octet-stream;base64,",
      "byteLength": 5958
    },
    {
      "uri": "data:application/octet-stream;base64,",
      "byteLength": 254474
    },
    {
      "uri": "data:application/octet-stream;base64,",
      "byteLength": 3904
    },
    {
      "uri": "data:application/octet-stream;base64,",
      "byteLength": 59282
    },
    {
      "uri": "data:application/octet-stream;base64,",
      "byteLength": 3498
    },
    {
      "uri": "data:application/octet-stream;base64,",
      "byteLength": 140
    },
    {
      "uri": "data:application/octet-stream;base64,",
      "byteLength": 845082
    },
    {
      "uri": "data:application/octet-stream;base64,",
      "byteLength": 3296
    }
  ],
  "bufferViews": [
    {
      "buffer": 0,
      "byteOffset": 0,
      "byteLength": 1908,
      "byteStride": 12,
      "target": 34962
    },
    {
      "buffer": 0,
      "byteOffset": 1908,
      "byteLength": 1908,
      "byteStride": 12,
      "target": 34962
    },
    {
      "buffer": 0,
      "byteOffset": 3816,
      "byteLength": 1272,
      "byteStride": 8,
      "target": 34962
    },
    {
      "buffer": 0,
      "byteOffset": 5088,
      "byteLength": 870,
      "target": 34963
    },
    {
      "buffer": 1,
      "byteOffset": 0,
      "byteLength": 88176,
      "byteStride": 12,
      "target": 34962
    },
    {
      "buffer": 1,
      "byteOffset": 88176,
      "byteLength": 88176,
      "byteStride": 12,
      "target": 34962
    },
    {
      "buffer": 1,
      "byteOffset": 176352,
      "byteLength": 58784,
      "byteStride": 8,
      "target": 34962
    },
    {
      "buffer": 1,
      "byteOffset": 235136,
      "byteLength": 19338,
      "target": 34963
    },
    {
      "buffer": 2,
      "byteOffset": 0,
      "byteLength": 1248,
      "byteStride": 12,
      "target": 34962
    },
    {
      "buffer": 2,
      "byteOffset": 1248,
      "byteLength": 1248,
      "byteStride": 12,
      "target": 34962
    },
    {
      "buffer": 2,
      "byteOffset": 2496,
      "byteLength": 832,
      "byteStride": 8,
      "target": 34962
    },
    {
      "buffer": 2,
      "byteOffset": 3328,
      "byteLength": 576,
      "target": 34963
    },
    {
      "buffer": 3,
      "byteOffset": 0,
      "byteLength": 20172,
      "byteStride": 12,
      "target": 34962
    },
    {
      "buffer": 3,
      "byteOffset": 20172,
      "byteLength": 20172,
      "byteStride": 12,
      "target": 34962
    },
    {
      "buffer": 3,
      "byteOffset": 40344,
      "byteLength": 13448,
      "byteStride": 8,
      "target": 34962
    },
    {
      "buffer": 3,
      "byteOffset": 53792,
      "byteLength": 5490,
      "target": 34963
    },
    {
      "buffer": 4,
      "byteOffset": 0,
      "byteLength": 1116,
      "byteStride": 12,
      "target": 34962
    },
    {
      "buffer": 4,
      "byteOffset": 1116,
      "byteLength": 1116,
      "byteStride": 12,
      "target": 34962
    },
    {
      "buffer": 4,
      "byteOffset": 2232,
      "byteLength": 744,
      "byteStride": 8,
      "target": 34962
    },
    {
      "buffer": 4,
      "byteOffset": 2976,
      "byteLength": 522,
      "target": 34963
    },
    {
      "buffer": 5,
      "byteOffset": 0,
      "byteLength": 48,
      "byteStride": 12,
      "target": 34962
    },
    {
      "buffer": 5,
      "byteOffset": 48,
      "byteLength": 48,
      "byteStride": 12,
      "target": 34962
    },
    {
      "buffer": 5,
      "byteOffset": 96,
      "byteLength": 32,
      "byteStride": 8,
      "target": 34962
    },
    {
      "buffer": 5,
      "byteOffset": 128,
      "byteLength": 12,
      "target": 34963
    },
    {
      "buffer": 6,
      "byteOffset": 0,
      "byteLength": 293652,
      "byteStride": 12,
      "target": 34962
    },
    {
      "buffer": 6,
      "byteOffset": 293652,
      "byteLength": 293652,
      "byteStride": 12,
      "target": 34962
    },
    {
      "buffer": 6,
      "byteOffset": 587304,
      "byteLength": 195768,
      "byteStride": 8,
      "target": 34962
    },
    {
      "buffer": 6,
      "byteOffset": 783072,
      "byteLength": 62010,
      "target": 34963
    },
    {
      "buffer": 7,
      "byteOffset": 0,
      "byteLength": 1056,
      "byteStride": 12,
      "target": 34962
    },
    {
      "buffer": 7,
      "byteOffset": 1056,
      "byteLength": 1056,
      "byteStride": 12,
      "target": 34962
    },
    {
      "buffer": 7,
      "byteOffset": 2112,
      "byteLength": 704,
      "byteStride": 8,
      "target": 34962
    },
    {
      "buffer": 7,
      "byteOffset": 2816,
      "byteLength": 480,
      "target": 34963
    }
  ],
  "accessors": [
    {
      "bufferView": 0,
      "byteOffset": 0,
      "componentType": 5126,
      "normalized": false,
      "count": 159,
      "min": [
        -0.004527594428509474,
        -0.002951360074803233,
        0.059697769582271576
      ],
      "max": [
        0.004461843054741621,
        -0.002951358212158084,
        0.07717813551425934
      ],
      "type": "VEC3"
    },
    {
      "bufferView": 1,
      "byteOffset": 0,
      "componentType": 5126,
      "normalized": false,
      "count": 159,
      "min": [
        0,
        -1,
        0
      ],
      "max": [
        0,
        -1,
        0
      ],
      "type": "VEC3"
    },
    {
      "bufferView": 2,
      "byteOffset": 0,
      "componentType": 5126,
      "normalized": false,
      "count": 159,
      "min": [
        0,
        0
      ],
      "max": [
        0,
        0
      ],
      "type": "VEC2"
    },
    {
      "bufferView": 3,
      "byteOffset": 0,
      "componentType": 5123,
      "normalized": false,
      "count": 435,
      "min": [
        0
      ],
      "max": [
        158
      ],
      "type": "SCALAR"
    },
    {
      "bufferView": 4,
      "byteOffset": 0,
      "componentType": 5126,
      "normalized": false,
      "count": 7348,
      "min": [
        -0.02500000037252903,
        -0.0025344870518893003,
        -0.10000001639127731
      ],
      "max": [
        0.025000007823109627,
        0.00250000087544322,
        0.10000001639127731
      ],
      "type": "VEC3"
    },
    {
      "bufferView": 5,
      "byteOffset": 0,
      "componentType": 5126,
      "normalized": false,
      "count": 7348,
      "min": [
        -1,
        -0.9999985694885254,
        -1
      ],
      "max": [
        1,
        1,
        1
      ],
      "type": "VEC3"
    },
    {
      "bufferView": 6,
      "byteOffset": 0,
      "componentType": 5126,
      "normalized": false,
      "count": 7348,
      "min": [
        0.125,
        0.018562018871307373
      ],
      "max": [
        0.875,
        1
      ],
      "type": "VEC2"
    },
    {
      "bufferView": 7,
      "byteOffset": 0,
      "componentType": 5123,
      "normalized": false,
      "count": 9669,
      "min": [
        0
      ],
      "max": [
        7347
      ],
      "type": "SCALAR"
    },
    {
      "bufferView": 8,
      "byteOffset": 0,
      "componentType": 5126,
      "normalized": false,
      "count": 104,
      "min": [
        -0.0055465386249125,
        -0.0029513647314161062,
        -0.06026294827461243
      ],
      "max": [
        0.005424064584076405,
        -0.0029513638000935316,
        -0.042813461273908615
      ],
      "type": "VEC3"
    },
    {
      "bufferView": 9,
      "byteOffset": 0,
      "componentType": 5126,
      "normalized": false,
      "count": 104,
      "min": [
        0,
        -1,
        0
      ],
      "max": [
        0,
        -1,
        0
      ],
      "type": "VEC3"
    },
    {
      "bufferView": 10,
      "byteOffset": 0,
      "componentType": 5126,
      "normalized": false,
      "count": 104,
      "min": [
        0,
        0
      ],
      "max": [
        0,
        0
      ],
      "type": "VEC2"
    },
    {
      "bufferView": 11,
      "byteOffset": 0,
      "componentType": 5123,
      "normalized": false,
      "count": 288,
      "min": [
        0
      ],
      "max": [
        103
      ],
      "type": "SCALAR"
    },
    {
      "bufferView": 12,
      "byteOffset": 0,
      "componentType": 5126,
      "normalized": false,
      "count": 1681,
      "min": [
        -0.014031770639121532,
        -0.0030513713136315346,
        -0.06556206941604614
      ],
      "max": [
        0.013968233950436115,
        -0.002051363931968808,
        0.08243794739246368
      ],
      "type": "VEC3"
    },
    {
      "bufferView": 13,
      "byteOffset": 0,
      "componentType": 5126,
      "normalized": false,
      "count": 1681,
      "min": [
        -1,
        -1,
        -1
      ],
      "max": [
        1,
        0.036900248378515244,
        1
      ],
      "type": "VEC3"
    },
    {
      "bufferView": 14,
      "byteOffset": 0,
      "componentType": 5126,
      "normalized": false,
      "count": 1681,
      "min": [
        0,
        0
      ],
      "max": [
        0.6166667342185974,
        0.9916666150093079
      ],
      "type": "VEC2"
    },
    {
      "bufferView": 15,
      "byteOffset": 0,
      "componentType": 5123,
      "normalized": false,
      "count": 2745,
      "min": [
        0
      ],
      "max": [
        1680
      ],
      "type": "SCALAR"
    },
    {
      "bufferView": 16,
      "byteOffset": 0,
      "componentType": 5126,
      "normalized": false,
      "count": 93,
      "min": [
        -0.00520716467872262,
        -0.002951361471787095,
        0.019887490198016167
      ],
      "max": [
        0.00556545564904809,
        -0.0029513610061258078,
        0.037114616483449936
      ],
      "type": "VEC3"
    },
    {
      "bufferView": 17,
      "byteOffset": 0,
      "componentType": 5126,
      "normalized": false,
      "count": 93,
      "min": [
        0,
        -1,
        0
      ],
      "max": [
        0,
        -1,
        0
      ],
      "type": "VEC3"
    },
    {
      "bufferView": 18,
      "byteOffset": 0,
      "componentType": 5126,
      "normalized": false,
      "count": 93,
      "min": [
        0,
        0
      ],
      "max": [
        0,
        0
      ],
      "type": "VEC2"
    },
    {
      "bufferView": 19,
      "byteOffset": 0,
      "componentType": 5123,
      "normalized": false,
      "count": 261,
      "min": [
        0
      ],
      "max": [
        92
      ],
      "type": "SCALAR"
    },
    {
      "bufferView": 20,
      "byteOffset": 0,
      "componentType": 5126,
      "normalized": false,
      "count": 4,
      "min": [
        -0.001253663212992251,
        -0.002951394533738494,
        -0.020065443590283394
      ],
      "max": [
        0.0011901255929842591,
        -0.0029513936024159193,
        -0.003058672184124589
      ],
      "type": "VEC3"
    },
    {
      "bufferView": 21,
      "byteOffset": 0,
      "componentType": 5126,
      "normalized": false,
      "count": 4,
      "min": [
        0,
        -1,
        0
      ],
      "max": [
        0,
        -1,
        0
      ],
      "type": "VEC3"
    },
    {
      "bufferView": 22,
      "byteOffset": 0,
      "componentType": 5126,
      "normalized": false,
      "count": 4,
      "min": [
        0,
        0
      ],
      "max": [
        0,
        0
      ],
      "type": "VEC2"
    },
    {
      "bufferView": 23,
      "byteOffset": 0,
      "componentType": 5123,
      "normalized": false,
      "count": 6,
      "min": [
        0
      ],
      "max": [
        3
      ],
      "type": "SCALAR"
    },
    {
      "bufferView": 24,
      "byteOffset": 0,
      "componentType": 5126,
      "normalized": false,
      "count": 24471,
      "min": [
        -0.015031770803034306,
        -0.0030513713136315346,
        -0.06656205654144287
      ],
      "max": [
        0.014968234114348888,
        0.0019486409146338701,
        0.0834379494190216
      ],
      "type": "VEC3"
    },
    {
      "bufferView": 25,
      "byteOffset": 0,
      "componentType": 5126,
      "normalized": false,
      "count": 24471,
      "min": [
        -1,
        -1,
        -1
      ],
      "max": [
        1,
        1,
        1
      ],
      "type": "VEC3"
    },
    {
      "bufferView": 26,
      "byteOffset": 0,
      "componentType": 5126,
      "normalized": false,
      "count": 24471,
      "min": [
        0.125,
        0
      ],
      "max": [
        0.8750000596046448,
        1
      ],
      "type": "VEC2"
    },
    {
      "bufferView": 27,
      "byteOffset": 0,
      "componentType": 5123,
      "normalized": false,
      "count": 31005,
      "min": [
        0
      ],
      "max": [
        24470
      ],
      "type": "SCALAR"
    },
    {
      "bufferView": 28,
      "byteOffset": 0,
      "componentType": 5126,
      "normalized": false,
      "count": 88,
      "min": [
        -0.014031770639121532,
        -0.002697806805372238,
        0.014437945559620857
      ],
      "max": [
        0.013968233950436115,
        -0.002697806805372238,
        0.04243794456124306
      ],
      "type": "VEC3"
    },
    {
      "bufferView": 29,
      "byteOffset": 0,
      "componentType": 5126,
      "normalized": false,
      "count": 88,
      "min": [
        0,
        -1,
        0
      ],
      "max": [
        0,
        -1,
        0
      ],
      "type": "VEC3"
    },
    {
      "bufferView": 30,
      "byteOffset": 0,
      "componentType": 5126,
      "normalized": false,
      "count": 88,
      "min": [
        0.38333332538604736,
        0.9691073894500732
      ],
      "max": [
        0.6166667342185974,
        0.9916666150093079
      ],
      "type": "VEC2"
    },
    {
      "bufferView": 31,
      "byteOffset": 0,
      "componentType": 5123,
      "normalized": false,
      "count": 240,
      "min": [
        0
      ],
      "max": [
        87
      ],
      "type": "SCALAR"
    }
  ],
  "scene": 0,
  "scenes": [
    {
      "nodes": [
        4
      ],
      "name": "Scene"
    }
  ],
  "nodes": [
    {
      "name": "PANEL 1_Material.004_0",
      "matrix": [
        0.9982221126556396,
        -0.007348510902374983,
        0.05914926156401634,
        0,
        0.059080660343170166,
        -0.009226145222783089,
        -0.998210608959198,
        0,
        0.007881078869104385,
        0.9999304413795471,
        -0.008775587193667889,
        0,
        -0.03721870481967926,
        -0.013188451528549194,
        0.009551034308969975,
        1
      ],
      "mesh": 0
    },
    {
      "name": "PANEL 1",
      "children": [
        0
      ],
      "matrix": [
        100,
        0,
        0,
        0,
        0,
        -0.000030294624593807384,
        -99.99999237060547,
        0,
        0,
        99.99999237060547,
        -0.000030294624593807384,
        0,
        3.7365362644195557,
        -1,
        -0.7085419297218323,
        1
      ]
    },
    {
      "name": "RootNode",
      "children": [
        1
      ]
    },
    {
      "name": "9dac8db2144f4f33a296f6d781585e8a.fbx",
      "children": [
        2
      ],
      "matrix": [
        1,
        0,
        0,
        0,
        0,
        -3.029462618542311e-7,
        0.9999999403953552,
        0,
        0,
        -0.9999999403953552,
        -3.029462618542311e-7,
        0,
        0,
        0,
        0,
        1
      ]
    },
    {
      "name": "Sketchfab_model",
      "children": [
        3
      ],
      "matrix": [
        1,
        0,
        0,
        0,
        0,
        -3.029462618542311e-7,
        -0.9999999403953552,
        0,
        0,
        0.9999999403953552,
        -3.029462618542311e-7,
        0,
        0,
        0,
        0,
        1
      ]
    }
  ],
  "meshes": [
    {
      "primitives": [
        {
          "material": 0,
          "mode": 4,
          "attributes": {
            "POSITION": 0,
            "NORMAL": 1,
            "TEXCOORD_0": 2
          },
          "indices": 3
        },
        {
          "material": 1,
          "mode": 4,
          "attributes": {
            "POSITION": 4,
            "NORMAL": 5,
            "TEXCOORD_0": 6
          },
          "indices": 7
        },
        {
          "material": 2,
          "mode": 4,
          "attributes": {
            "POSITION": 8,
            "NORMAL": 9,
            "TEXCOORD_0": 10
          },
          "indices": 11
        },
        {
          "material": 3,
          "mode": 4,
          "attributes": {
            "POSITION": 12,
            "NORMAL": 13,
            "TEXCOORD_0": 14
          },
          "indices": 15
        },
        {
          "material": 4,
          "mode": 4,
          "attributes": {
            "POSITION": 16,
            "NORMAL": 17,
            "TEXCOORD_0": 18
          },
          "indices": 19
        },
        {
          "material": 5,
          "mode": 4,
          "attributes": {
            "POSITION": 20,
            "NORMAL": 21,
            "TEXCOORD_0": 22
          },
          "indices": 23
        },
        {
          "material": 6,
          "mode": 4,
          "attributes": {
            "POSITION": 24,
            "NORMAL": 25,
            "TEXCOORD_0": 26
          },
          "indices": 27
        },
        {
          "material": 7,
          "mode": 4,
          "attributes": {
            "POSITION": 28,
            "NORMAL": 29,
            "TEXCOORD_0": 30
          },
          "indices": 31
        }
      ]
    }
  ],
  "materials": [
    {
      "name": "Material.004",
      "pbrMetallicRoughness": {
        "baseColorFactor": [
          0,
          0,
          0,
          1
        ],
        "metallicFactor": 0.5,
        "roughnessFactor": 0.30000001192092896
      },
      "emissiveFactor": [
        0,
        0,
        0
      ],
      "alphaMode": "OPAQUE",
      "doubleSided": true
    },
    {
      "name": "Material.008",
      "pbrMetallicRoughness": {
        "baseColorFactor": [
          0.40784313725490196,
          0.40784313725490196,
          0.40784313725490196,
          1
        ],
        "metallicFactor": 0.5,
        "roughnessFactor": 0.4000000059604645
      },
      "emissiveFactor": [
        0,
        0,
        0
      ],
      "alphaMode": "OPAQUE",
      "doubleSided": true
    },
    {
      "name": "Material.006",
      "pbrMetallicRoughness": {
        "baseColorFactor": [
          0,
          0,
          0,
          1
        ],
        "metallicFactor": 0.5,
        "roughnessFactor": 0.4000000059604645
      },
      "emissiveFactor": [
        0,
        0,
        0
      ],
      "alphaMode": "OPAQUE",
      "doubleSided": true
    },
    {
      "name": "Material.009",
      "pbrMetallicRoughness": {
        "baseColorFactor": [
          0.4980392156862745,
          0.5333333333333333,
          0.4392156862745098,
          1
        ],
        "metallicFactor": 0.4000000059604645,
        "roughnessFactor": 0.4000000059604645
      },
      "emissiveFactor": [
        0,
        0,
        0
      ],
      "alphaMode": "OPAQUE",
      "doubleSided": true
    },
    {
      "name": "Material.003",
      "pbrMetallicRoughness": {
        "baseColorFactor": [
          0.00392156862745098,
          0.00392156862745098,
          0,
          1
        ],
        "metallicFactor": 0.5,
        "roughnessFactor": 0.4000000059604645
      },
      "emissiveFactor": [
        0,
        0,
        0
      ],
      "alphaMode": "OPAQUE",
      "doubleSided": true
    },
    {
      "name": "Material.005",
      "pbrMetallicRoughness": {
        "baseColorFactor": [
          0,
          0,
          0,
          1
        ],
        "metallicFactor": 0.5,
        "roughnessFactor": 0.4000000059604645
      },
      "emissiveFactor": [
        0,
        0,
        0
      ],
      "alphaMode": "OPAQUE",
      "doubleSided": true
    },
    {
      "name": "Material.010",
      "pbrMetallicRoughness": {
        "baseColorFactor": [
          0.5254901960784314,
          0.5176470588235295,
          0.5294117647058824,
          1
        ],
        "metallicFactor": 0.5,
        "roughnessFactor": 0.30000001192092896
      },
      "emissiveFactor": [
        0,
        0,
        0
      ],
      "alphaMode": "OPAQUE",
      "doubleSided": true
    },
    {
      "name": "Material.007",
      "pbrMetallicRoughness": {
        "baseColorFactor": [
          0.4980392156862745,
          0.5333333333333333,
          0.4392156862745098,
          1
        ],
        "metallicFactor": 0,
        "roughnessFactor": 0.4000000059604645
      },
      "emissiveFactor": [
        0,
        0,
        0
      ],
      "alphaMode": "OPAQUE",
      "doubleSided": true
    }
  ]
}