{
  "accessors": [
    {
      "bufferView": 2,
      "componentType": 5126,
      "count": 6125,
      "max": [
        0.02500000037252903,
        0.002500000176951289,
        0.10000000149011612
      ],
      "min": [
        -0.02500000037252903,
        -0.002534487284719944,
        -0.10000000149011612
      ],
      "type": "VEC3"
    },
    {
      "bufferView": 2,
      "byteOffset": 73500,
      "componentType": 5126,
      "count": 6125,
      "max": [
        1.0,
        1.0,
        1.0
      ],
      "min": [
        -1.0,
        -0.9999977946281433,
        -1.0
      ],
      "type": "VEC3"
    },
    {
      "bufferView": 1,
      "componentType": 5126,
      "count": 6125,
      "max": [
        0.875,
        1.0
      ],
      "min": [
        0.125,
        0.01856202632188797
      ],
      "type": "VEC2"
    },
    {
      "bufferView": 0,
      "componentType": 5125,
      "count": 9669,
      "type": "SCALAR"
    },
    {
      "bufferView": 2,
      "byteOffset": 147000,
      "componentType": 5126,
      "count": 159,
      "max": [
        0.004461843054741621,
        -0.002951358212158084,
        0.07717813551425934
      ],
      "min": [
        -0.004527594428509474,
        -0.002951360074803233,
        0.059697769582271576
      ],
      "type": "VEC3"
    },
    {
      "bufferView": 2,
      "byteOffset": 148908,
      "componentType": 5126,
      "count": 159,
      "max": [
        2.255320623589796e-07,
        -1.0,
        0.0
      ],
      "min": [
        -7.945413216248198e-08,
        -1.0,
        -3.0936033112993755e-07
      ],
      "type": "VEC3"
    },
    {
      "bufferView": 1,
      "byteOffset": 49000,
      "componentType": 5126,
      "count": 159,
      "max": [
        0.0,
        0.0
      ],
      "min": [
        0.0,
        0.0
      ],
      "type": "VEC2"
    },
    {
      "bufferView": 0,
      "byteOffset": 38676,
      "componentType": 5125,
      "count": 435,
      "type": "SCALAR"
    },
    {
      "bufferView": 2,
      "byteOffset": 150816,
      "componentType": 5126,
      "count": 104,
      "max": [
        0.005424060393124819,
        -0.0029513638000935316,
        -0.04281345754861832
      ],
      "min": [
        -0.0055465418845415115,
        -0.0029513647314161062,
        -0.06026294082403183
      ],
      "type": "VEC3"
    },
    {
      "bufferView": 2,
      "byteOffset": 152064,
      "componentType": 5126,
      "count": 104,
      "max": [
        5.5673377019616055e-09,
        -1.0,
        1.1502706342980673e-07
      ],
      "min": [
        -1.1140135924847527e-08,
        -1.0,
        -9.307007076131413e-08
      ],
      "type": "VEC3"
    },
    {
      "bufferView": 1,
      "byteOffset": 50272,
      "componentType": 5126,
      "count": 104,
      "max": [
        0.0,
        0.0
      ],
      "min": [
        0.0,
        0.0
      ],
      "type": "VEC2"
    },
    {
      "bufferView": 0,
      "byteOffset": 40416,
      "componentType": 5125,
      "count": 288,
      "type": "SCALAR"
    },
    {
      "bufferView": 2,
      "byteOffset": 153312,
      "componentType": 5126,
      "count": 1613,
      "max": [
        0.013968228362500668,
        -0.002051364164799452,
        0.08243793994188309
      ],
      "min": [
        -0.014031772501766682,
        -0.0030513713136315346,
        -0.06556206196546555
      ],
      "type": "VEC3"
    },
    {
      "bufferView": 2,
      "byteOffset": 172668,
      "componentType": 5126,
      "count": 1613,
      "max": [
        1.0,
        0.03686044365167618,
        1.0
      ],
      "min": [
        -1.0,
        -1.0,
        -1.0
      ],
      "type": "VEC3"
    },
    {
      "bufferView": 1,
      "byteOffset": 51104,
      "componentType": 5126,
      "count": 1613,
      "max": [
        0.6166667342185974,
        0.9916666150093079
      ],
      "min": [
        0.0,
        0.0
      ],
      "type": "VEC2"
    },
    {
      "bufferView": 0,
      "byteOffset": 41568,
      "componentType": 5125,
      "count": 2745,
      "type": "SCALAR"
    },
    {
      "bufferView": 2,
      "byteOffset": 192024,
      "componentType": 5126,
      "count": 93,
      "max": [
        0.005565451458096504,
        -0.0029513610061258078,
        0.03711461275815964
      ],
      "min": [
        -0.005207167938351631,
        -0.002951361471787095,
        0.019887488335371017
      ],
      "type": "VEC3"
    },
    {
      "bufferView": 2,
      "byteOffset": 193140,
      "componentType": 5126,
      "count": 93,
      "max": [
        0.0,
        -1.0,
        6.793819551376146e-08
      ],
      "min": [
        -4.7918682355430064e-09,
        -1.0,
        -7.664068846224836e-08
      ],
      "type": "VEC3"
    },
    {
      "bufferView": 1,
      "byteOffset": 64008,
      "componentType": 5126,
      "count": 93,
      "max": [
        0.0,
        0.0
      ],
      "min": [
        0.0,
        0.0
      ],
      "type": "VEC2"
    },
    {
      "bufferView": 0,
      "byteOffset": 52548,
      "componentType": 5125,
      "count": 261,
      "type": "SCALAR"
    },
    {
      "bufferView": 2,
      "byteOffset": 194256,
      "componentType": 5126,
      "count": 4,
      "max": [
        0.0011901217512786388,
        -0.0029513936024159193,
        -0.0030586719512939453
      ],
      "min": [
        -0.0012536668218672276,
        -0.002951394533738494,
        -0.020065441727638245
      ],
      "type": "VEC3"
    },
    {
      "bufferView": 2,
      "byteOffset": 194304,
      "componentType": 5126,
      "count": 4,
      "max": [
        0.0,
        -1.0,
        -5.4708497287947466e-08
      ],
      "min": [
        0.0,
        -1.0,
        -5.4708497287947466e-08
      ],
      "type": "VEC3"
    },
    {
      "bufferView": 1,
      "byteOffset": 64752,
      "componentType": 5126,
      "count": 4,
      "max": [
        0.0,
        0.0
      ],
      "min": [
        0.0,
        0.0
      ],
      "type": "VEC2"
    },
    {
      "bufferView": 0,
      "byteOffset": 53592,
      "componentType": 5125,
      "count": 6,
      "type": "SCALAR"
    },
    {
      "bufferView": 2,
      "byteOffset": 194352,
      "componentType": 5126,
      "count": 19721,
      "max": [
        0.01496822852641344,
        0.0019486402161419392,
        0.08343794196844101
      ],
      "min": [
        -0.015031772665679455,
        -0.0030513713136315346,
        -0.06656204909086227
      ],
      "type": "VEC3"
    },
    {
      "bufferView": 2,
      "byteOffset": 431004,
      "componentType": 5126,
      "count": 19721,
      "max": [
        1.0,
        1.0,
        1.0
      ],
      "min": [
        -1.0,
        -1.0,
        -1.0
      ],
      "type": "VEC3"
    },
    {
      "bufferView": 1,
      "byteOffset": 64784,
      "componentType": 5126,
      "count": 19721,
      "max": [
        0.8750000596046448,
        1.0
      ],
      "min": [
        0.125,
        0.0
      ],
      "type": "VEC2"
    },
    {
      "bufferView": 0,
      "byteOffset": 53616,
      "componentType": 5125,
      "count": 31005,
      "type": "SCALAR"
    },
    {
      "bufferView": 2,
      "byteOffset": 667656,
      "componentType": 5126,
      "count": 88,
      "max": [
        0.013968228362500668,
        -0.002697807038202882,
        0.04243794083595276
      ],
      "min": [
        -0.014031772501766682,
        -0.002697807038202882,
        0.014437943696975708
      ],
      "type": "VEC3"
    },
    {
      "bufferView": 2,
      "byteOffset": 668712,
      "componentType": 5126,
      "count": 88,
      "max": [
        0.0,
        -1.0,
        1.3618630667622256e-09
      ],
      "min": [
        0.0,
        -1.0,
        -4.677220744042643e-08
      ],
      "type": "VEC3"
    },
    {
      "bufferView": 1,
      "byteOffset": 222552,
      "componentType": 5126,
      "count": 88,
      "max": [
        0.6166667342185974,
        0.9916666150093079
      ],
      "min": [
        0.38333332538604736,
        0.9691073894500732
      ],
      "type": "VEC2"
    },
    {
      "bufferView": 0,
      "byteOffset": 177636,
      "componentType": 5125,
      "count": 240,
      "type": "SCALAR"
    }
  ],
  "asset": {
    "extras": {
      "author": "YouniqueĪdeaStudio (https://sketchfab.com/sinnervoncrawsz)",
      "license": "CC-BY-4.0 (http://creativecommons.org/licenses/by/4.0/)",
      "source": "https://sketchfab.com/3d-models/elevator-button-lift-3ea11381dcc4459e8b9bf21ef4fb43f8",
      "title": "ELEVATOR BUTTON - LIFT"
    },
    "generator": "Sketchfab-12.66.0",
    "version": "2.0"
  },
  "bufferViews": [
    {
      "buffer": 0,
      "byteLength": 178596,
      "name": "floatBufferViews",
      "target": 34963
    },
    {
      "buffer": 0,
      "byteLength": 223256,
      "byteOffset": 178596,
      "byteStride": 8,
      "name": "floatBufferViews",
      "target": 34962
    },
    {
      "buffer": 0,
      "byteLength": 669768,
      "byteOffset": 401852,
      "byteStride": 12,
      "name": "floatBufferViews",
      "target": 34962
    }
  ],
  "buffers": [
    {
      "byteLength": 1071620,
      "uri": "scene.bin"
    }
  ],
  "extensionsUsed": [
    "KHR_materials_clearcoat"
  ],
  "materials": [
    {
      "doubleSided": true,
      "extensions": {
        "KHR_materials_clearcoat": {
          "clearcoatFactor": 1.0,
          "clearcoatRoughnessFactor": 0.04
        }
      },
      "name": "Material.008",
      "pbrMetallicRoughness": {
        "baseColorFactor": [
          0.7536073402,
          0.7536073402,
          0.7536073402,
          1.0
        ],
        "roughnessFactor": 0.0
      }
    },
    {
      "doubleSided": true,
      "emissiveFactor": [
        1.0,
        0.063686912,
        0.063686912
      ],
      "name": "Material.004",
      "pbrMetallicRoughness": {
        "baseColorFactor": [
          1.0,
          0.0,
          0.0136357794,
          1.0
        ],
        "metallicFactor": 0.0,
        "roughnessFactor": 0.86728995
      }
    },
    {
      "doubleSided": true,
      "emissiveFactor": [
        1.0,
        0.033465358,
        0.033465358
      ],
      "name": "Material.006",
      "pbrMetallicRoughness": {
        "baseColorFactor": [
          0.9933415665,
          0.0,
          0.0,
          1.0
        ],
        "metallicFactor": 0.0,
        "roughnessFactor": 0.9717677724
      }
    },
    {
      "emissiveFactor": [
        1.0,
        1.0,
        1.0
      ],
      "name": "Material.001",
      "pbrMetallicRoughness": {
        "baseColorFactor": [
          0.7999999999999999,
          0.0,
          0.011311000000000017,
          1.0
        ],
        "metallicFactor": 0.0,
        "roughnessFactor": 0.9617863464
      }
    },
    {
      "doubleSided": true,
      "emissiveFactor": [
        0.264799934,
        1.0,
        0.022697782
      ],
      "name": "Material.003",
      "pbrMetallicRoughness": {
        "baseColorFactor": [
          0.0427153514,
          1.0,
          0.0005674458,
          1.0
        ],
        "metallicFactor": 0.0,
        "roughnessFactor": 0.865279299
      }
    },
    {
      "doubleSided": true,
      "emissiveFactor": [
        1.0,
        0.033465358,
        0.033465358
      ],
      "name": "Material.005",
      "pbrMetallicRoughness": {
        "baseColorFactor": [
          1.0,
          0.0,
          0.0,
          1.0
        ],
        "metallicFactor": 0.0,
        "roughnessFactor": 0.9468030734
      }
    },
    {
      "doubleSided": true,
      "extensions": {
        "KHR_materials_clearcoat": {
          "clearcoatFactor": 1.0,
          "clearcoatRoughnessFactor": 0.04
        }
      },
      "name": "Material.002",
      "pbrMetallicRoughness": {
        "roughnessFactor": 0.0
      }
    },
    {
      "doubleSided": true,
      "emissiveFactor": [
        1.0,
        1.0,
        1.0
      ],
      "name": "Material.007",
      "pbrMetallicRoughness": {
        "baseColorFactor": [
          1.0,
          0.0,
          0.0,
          1.0
        ],
        "metallicFactor": 0.0,
        "roughnessFactor": 0.8690485571
      }
    }
  ],
  "meshes": [
    {
      "name": "PANEL 1_Material.008_0",
      "primitives": [
        {
          "attributes": {
            "NORMAL": 1,
            "POSITION": 0,
            "TEXCOORD_0": 2
          },
          "indices": 3,
          "material": 0,
          "mode": 4
        }
      ]
    },
    {
      "name": "PANEL 1_Material.004_0",
      "primitives": [
        {
          "attributes": {
            "NORMAL": 5,
            "POSITION": 4,
            "TEXCOORD_0": 6
          },
          "indices": 7,
          "material": 1,
          "mode": 4
        }
      ]
    },
    {
      "name": "PANEL 1_Material.006_0",
      "primitives": [
        {
          "attributes": {
            "NORMAL": 9,
            "POSITION": 8,
            "TEXCOORD_0": 10
          },
          "indices": 11,
          "material": 2,
          "mode": 4
        }
      ]
    },
    {
      "name": "PANEL 1_Material.001_0",
      "primitives": [
        {
          "attributes": {
            "NORMAL": 13,
            "POSITION": 12,
            "TEXCOORD_0": 14
          },
          "indices": 15,
          "material": 3,
          "mode": 4
        }
      ]
    },
    {
      "name": "PANEL 1_Material.003_0",
      "primitives": [
        {
          "attributes": {
            "NORMAL": 17,
            "POSITION": 16,
            "TEXCOORD_0": 18
          },
          "indices": 19,
          "material": 4,
          "mode": 4
        }
      ]
    },
    {
      "name": "PANEL 1_Material.005_0",
      "primitives": [
        {
          "attributes": {
            "NORMAL": 21,
            "POSITION": 20,
            "TEXCOORD_0": 22
          },
          "indices": 23,
          "material": 5,
          "mode": 4
        }
      ]
    },
    {
      "name": "PANEL 1_Material.002_0",
      "primitives": [
        {
          "attributes": {
            "NORMAL": 25,
            "POSITION": 24,
            "TEXCOORD_0": 26
          },
          "indices": 27,
          "material": 6,
          "mode": 4
        }
      ]
    },
    {
      "name": "PANEL 1_Material.007_0",
      "primitives": [
        {
          "attributes": {
            "NORMAL": 29,
            "POSITION": 28,
            "TEXCOORD_0": 30
          },
          "indices": 31,
          "material": 7,
          "mode": 4
        }
      ]
    }
  ],
  "nodes": [
    {
      "children": [
        1
      ],
      "matrix": [
        1.0,
        0.0,
        0.0,
        0.0,
        0.0,
        2.220446049250313e-16,
        -1.0,
        0.0,
        0.0,
        1.0,
        2.220446049250313e-16,
        0.0,
        0.0,
        -2.522702047258462e-08,
        -3.3100835850063965e-08,
        1.0
      ],
      "name": "Sketchfab_model"
    },
    {
      "children": [
        2
      ],
      "matrix": [
        1.0,
        0.0,
        0.0,
        0.0,
        0.0,
        0.0,
        1.0,
        0.0,
        0.0,
        -1.0,
        0.0,
        0.0,
        0.0,
        0.0,
        0.0,
        1.0
      ],
      "name": "9dac8db2144f4f33a296f6d781585e8a.fbx"
    },
    {
      "children": [
        3
      ],
      "name": "RootNode"
    },
    {
      "children": [
        4,
        5,
        6,
        7,
        8,
        9,
        10,
        11
      ],
      "matrix": [
        100.0,
        0.0,
        0.0,
        0.0,
        0.0,
        -1.629206793918314e-05,
        -99.99999999999868,
        0.0,
        0.0,
        99.99999999999868,
        -1.629206793918314e-05,
        0.0,
        3.7365362644195557,
        -1.0,
        -0.7085419297218323,
        1.0
      ],
      "name": "PANEL 1"
    },
    {
      "mesh": 0,
      "name": "PANEL 1_Material.008_0"
    },
    {
      "mesh": 1,
      "name": "PANEL 1_Material.004_0"
    },
    {
      "mesh": 2,
      "name": "PANEL 1_Material.006_0"
    },
    {
      "mesh": 3,
      "name": "PANEL 1_Material.001_0"
    },
    {
      "mesh": 4,
      "name": "PANEL 1_Material.003_0"
    },
    {
      "mesh": 5,
      "name": "PANEL 1_Material.005_0"
    },
    {
      "mesh": 6,
      "name": "PANEL 1_Material.002_0"
    },
    {
      "mesh": 7,
      "name": "PANEL 1_Material.007_0"
    }
  ],
  "scene": 0,
  "scenes": [
    {
      "name": "Sketchfab_Scene",
      "nodes": [
        0
      ]
    }
  ]
}
