{
  "asset": {
    "version": "2.0",
    "generator": "gltfeditor.com"
  },
  "buffers": [
    {
      "uri": "data:application/octet-stream;base64,",
      "byteLength": 27648
    }
  ],
  "bufferViews": [
    {
      "buffer": 0,
      "byteOffset": 0,
      "byteLength": 27648,
      "byteStride": 32,
      "target": 34962
    }
  ],
  "accessors": [
    {
      "bufferView": 0,
      "byteOffset": 0,
      "componentType": 5126,
      "count": 864,
      "min": [
        -21.724029541015625,
        0,
        -21.393999099731445
      ],
      "max": [
        21.724029541015625,
        3.9722900390625,
        21.394010543823242
      ],
      "type": "VEC3"
    },
    {
      "bufferView": 0,
      "byteOffset": 12,
      "componentType": 5126,
      "count": 864,
      "min": [
        -0.7851319909095764,
        -1,
        -0.7732040286064148
      ],
      "max": [
        0.7851319909095764,
        1,
        0.7732040286064148
      ],
      "type": "VEC3"
    },
    {
      "bufferView": 0,
      "byteOffset": 24,
      "componentType": 5126,
      "count": 864,
      "min": [
        0.019999999552965164,
        0.019999999552965164
      ],
      "max": [
        0.9524809718132019,
        0.9800000190734863
      ],
      "type": "VEC2"
    }
  ],
  "scene": 0,
  "scenes": [
    {
      "nodes": [
        1
      ],
      "name": "Metal_Plate_OBJ.obj"
    }
  ],
  "nodes": [
    {
      "name": "plate_low",
      "mesh": 0
    },
    {
      "name": "Metal_Plate_OBJ.obj",
      "children": [
        0
      ]
    }
  ],
  "meshes": [
    {
      "primitives": [
        {
          "material": 0,
          "mode": 4,
          "attributes": {
            "POSITION": 0,
            "NORMAL": 1,
            "TEXCOORD_0": 2
          }
        }
      ]
    }
  ],
  "materials": [
    {
      "name": "",
      "pbrMetallicRoughness": {
        "baseColorFactor": [
          0.9333333333333333,
          0.9333333333333333,
          0.9333333333333333,
          1
        ],
        "metallicFactor": 1,
        "roughnessFactor": 1
      },
      "emissiveFactor": [
        0,
        0,
        0
      ],
      "alphaMode": "OPAQUE",
      "doubleSided": false,
      "extensions": {
        "KHR_materials_volume": {
          "thicknessFactor": 1,
          "attenuationColor": [
            1,
            1,
            1
          ],
          "attenuationDistance": null
        }
      }
    }
  ],
  "extensionsUsed": [
    "KHR_materials_volume"
  ]
}