{
  "asset": {
    "extras": {
      "author": "YouniqueĪdeaStudio (https://sketchfab.com/sinnervoncrawsz)",
      "license": "CC-BY-4.0 (http://creativecommons.org/licenses/by/4.0/)",
      "source": "https://sketchfab.com/3d-models/elevator-button-lift-3ea11381dcc4459e8b9bf21ef4fb43f8",
      "title": "ELEVATOR BUTTON - LIFT"
    },
    "generator": "gltfeditor.com",
    "version": "2.0"
  },
  "buffers": [
    {
      "uri": "data:application/octet-stream;base64,",
      "byteLength": 234676
    },
    {
      "uri": "data:application/octet-stream;base64,",
      "byteLength": 6828
    },
    {
      "uri": "data:application/octet-stream;base64,",
      "byteLength": 4480
    },
    {
      "uri": "data:application/octet-stream;base64,",
      "byteLength": 62596
    },
    {
      "uri": "data:application/octet-stream;base64,",
      "byteLength": 4020
    },
    {
      "uri": "data:application/octet-stream;base64,",
      "byteLength": 152
    },
    {
      "uri": "data:application/octet-stream;base64,",
      "byteLength": 755092
    },
    {
      "uri": "data:application/octet-stream;base64,",
      "byteLength": 3776
    }
  ],
  "bufferViews": [
    {
      "buffer": 0,
      "byteOffset": 0,
      "byteLength": 147000,
      "byteStride": 24,
      "target": 34962
    },
    {
      "buffer": 0,
      "byteOffset": 147000,
      "byteLength": 49000,
      "byteStride": 8,
      "target": 34962
    },
    {
      "buffer": 0,
      "byteOffset": 196000,
      "byteLength": 38676,
      "target": 34963
    },
    {
      "buffer": 1,
      "byteOffset": 0,
      "byteLength": 3816,
      "byteStride": 24,
      "target": 34962
    },
    {
      "buffer": 1,
      "byteOffset": 3816,
      "byteLength": 1272,
      "byteStride": 8,
      "target": 34962
    },
    {
      "buffer": 1,
      "byteOffset": 5088,
      "byteLength": 1740,
      "target": 34963
    },
    {
      "buffer": 2,
      "byteOffset": 0,
      "byteLength": 2496,
      "byteStride": 24,
      "target": 34962
    },
    {
      "buffer": 2,
      "byteOffset": 2496,
      "byteLength": 832,
      "byteStride": 8,
      "target": 34962
    },
    {
      "buffer": 2,
      "byteOffset": 3328,
      "byteLength": 1152,
      "target": 34963
    },
    {
      "buffer": 3,
      "byteOffset": 0,
      "byteLength": 38712,
      "byteStride": 24,
      "target": 34962
    },
    {
      "buffer": 3,
      "byteOffset": 38712,
      "byteLength": 12904,
      "byteStride": 8,
      "target": 34962
    },
    {
      "buffer": 3,
      "byteOffset": 51616,
      "byteLength": 10980,
      "target": 34963
    },
    {
      "buffer": 4,
      "byteOffset": 0,
      "byteLength": 2232,
      "byteStride": 24,
      "target": 34962
    },
    {
      "buffer": 4,
      "byteOffset": 2232,
      "byteLength": 744,
      "byteStride": 8,
      "target": 34962
    },
    {
      "buffer": 4,
      "byteOffset": 2976,
      "byteLength": 1044,
      "target": 34963
    },
    {
      "buffer": 5,
      "byteOffset": 0,
      "byteLength": 96,
      "byteStride": 24,
      "target": 34962
    },
    {
      "buffer": 5,
      "byteOffset": 96,
      "byteLength": 32,
      "byteStride": 8,
      "target": 34962
    },
    {
      "buffer": 5,
      "byteOffset": 128,
      "byteLength": 24,
      "target": 34963
    },
    {
      "buffer": 6,
      "byteOffset": 0,
      "byteLength": 473304,
      "byteStride": 24,
      "target": 34962
    },
    {
      "buffer": 6,
      "byteOffset": 473304,
      "byteLength": 157768,
      "byteStride": 8,
      "target": 34962
    },
    {
      "buffer": 6,
      "byteOffset": 631072,
      "byteLength": 124020,
      "target": 34963
    },
    {
      "buffer": 7,
      "byteOffset": 0,
      "byteLength": 2112,
      "byteStride": 24,
      "target": 34962
    },
    {
      "buffer": 7,
      "byteOffset": 2112,
      "byteLength": 704,
      "byteStride": 8,
      "target": 34962
    },
    {
      "buffer": 7,
      "byteOffset": 2816,
      "byteLength": 960,
      "target": 34963
    }
  ],
  "accessors": [
    {
      "bufferView": 0,
      "byteOffset": 0,
      "componentType": 5126,
      "normalized": false,
      "count": 6125,
      "min": [
        -1,
        -0.9999977946281433,
        -1
      ],
      "max": [
        1,
        1,
        1
      ],
      "type": "VEC3"
    },
    {
      "bufferView": 0,
      "byteOffset": 12,
      "componentType": 5126,
      "normalized": false,
      "count": 6125,
      "min": [
        -0.02500000037252903,
        -0.002534487284719944,
        -0.10000000149011612
      ],
      "max": [
        0.02500000037252903,
        0.002500000176951289,
        0.10000000149011612
      ],
      "type": "VEC3"
    },
    {
      "bufferView": 1,
      "byteOffset": 0,
      "componentType": 5126,
      "normalized": false,
      "count": 6125,
      "min": [
        0.125,
        0.01856202632188797
      ],
      "max": [
        0.875,
        1
      ],
      "type": "VEC2"
    },
    {
      "bufferView": 2,
      "byteOffset": 0,
      "componentType": 5125,
      "normalized": false,
      "count": 9669,
      "min": [
        0
      ],
      "max": [
        6124
      ],
      "type": "SCALAR"
    },
    {
      "bufferView": 3,
      "byteOffset": 0,
      "componentType": 5126,
      "normalized": false,
      "count": 159,
      "min": [
        -7.945413216248198e-8,
        -1,
        -3.0936033112993755e-7
      ],
      "max": [
        2.255320623589796e-7,
        -1,
        0
      ],
      "type": "VEC3"
    },
    {
      "bufferView": 3,
      "byteOffset": 12,
      "componentType": 5126,
      "normalized": false,
      "count": 159,
      "min": [
        -0.004527594428509474,
        -0.002951360074803233,
        0.059697769582271576
      ],
      "max": [
        0.004461843054741621,
        -0.002951358212158084,
        0.07717813551425934
      ],
      "type": "VEC3"
    },
    {
      "bufferView": 4,
      "byteOffset": 0,
      "componentType": 5126,
      "normalized": false,
      "count": 159,
      "min": [
        0,
        0
      ],
      "max": [
        0,
        0
      ],
      "type": "VEC2"
    },
    {
      "bufferView": 5,
      "byteOffset": 0,
      "componentType": 5125,
      "normalized": false,
      "count": 435,
      "min": [
        0
      ],
      "max": [
        158
      ],
      "type": "SCALAR"
    },
    {
      "bufferView": 6,
      "byteOffset": 0,
      "componentType": 5126,
      "normalized": false,
      "count": 104,
      "min": [
        -1.1140135924847527e-8,
        -1,
        -9.307007076131413e-8
      ],
      "max": [
        5.5673377019616055e-9,
        -1,
        1.1502706342980673e-7
      ],
      "type": "VEC3"
    },
    {
      "bufferView": 6,
      "byteOffset": 12,
      "componentType": 5126,
      "normalized": false,
      "count": 104,
      "min": [
        -0.0055465418845415115,
        -0.0029513647314161062,
        -0.06026294082403183
      ],
      "max": [
        0.005424060393124819,
        -0.0029513638000935316,
        -0.04281345754861832
      ],
      "type": "VEC3"
    },
    {
      "bufferView": 7,
      "byteOffset": 0,
      "componentType": 5126,
      "normalized": false,
      "count": 104,
      "min": [
        0,
        0
      ],
      "max": [
        0,
        0
      ],
      "type": "VEC2"
    },
    {
      "bufferView": 8,
      "byteOffset": 0,
      "componentType": 5125,
      "normalized": false,
      "count": 288,
      "min": [
        0
      ],
      "max": [
        103
      ],
      "type": "SCALAR"
    },
    {
      "bufferView": 9,
      "byteOffset": 0,
      "componentType": 5126,
      "normalized": false,
      "count": 1613,
      "min": [
        -1,
        -1,
        -1
      ],
      "max": [
        1,
        0.03686044365167618,
        1
      ],
      "type": "VEC3"
    },
    {
      "bufferView": 9,
      "byteOffset": 12,
      "componentType": 5126,
      "normalized": false,
      "count": 1613,
      "min": [
        -0.014031772501766682,
        -0.0030513713136315346,
        -0.06556206196546555
      ],
      "max": [
        0.013968228362500668,
        -0.002051364164799452,
        0.08243793994188309
      ],
      "type": "VEC3"
    },
    {
      "bufferView": 10,
      "byteOffset": 0,
      "componentType": 5126,
      "normalized": false,
      "count": 1613,
      "min": [
        0,
        0
      ],
      "max": [
        0.6166667342185974,
        0.9916666150093079
      ],
      "type": "VEC2"
    },
    {
      "bufferView": 11,
      "byteOffset": 0,
      "componentType": 5125,
      "normalized": false,
      "count": 2745,
      "min": [
        0
      ],
      "max": [
        1612
      ],
      "type": "SCALAR"
    },
    {
      "bufferView": 12,
      "byteOffset": 0,
      "componentType": 5126,
      "normalized": false,
      "count": 93,
      "min": [
        -4.7918682355430064e-9,
        -1,
        -7.664068846224836e-8
      ],
      "max": [
        0,
        -1,
        6.793819551376146e-8
      ],
      "type": "VEC3"
    },
    {
      "bufferView": 12,
      "byteOffset": 12,
      "componentType": 5126,
      "normalized": false,
      "count": 93,
      "min": [
        -0.005207167938351631,
        -0.002951361471787095,
        0.019887488335371017
      ],
      "max": [
        0.005565451458096504,
        -0.0029513610061258078,
        0.03711461275815964
      ],
      "type": "VEC3"
    },
    {
      "bufferView": 13,
      "byteOffset": 0,
      "componentType": 5126,
      "normalized": false,
      "count": 93,
      "min": [
        0,
        0
      ],
      "max": [
        0,
        0
      ],
      "type": "VEC2"
    },
    {
      "bufferView": 14,
      "byteOffset": 0,
      "componentType": 5125,
      "normalized": false,
      "count": 261,
      "min": [
        0
      ],
      "max": [
        92
      ],
      "type": "SCALAR"
    },
    {
      "bufferView": 15,
      "byteOffset": 0,
      "componentType": 5126,
      "normalized": false,
      "count": 4,
      "min": [
        0,
        -1,
        -5.4708497287947466e-8
      ],
      "max": [
        0,
        -1,
        -5.4708497287947466e-8
      ],
      "type": "VEC3"
    },
    {
      "bufferView": 15,
      "byteOffset": 12,
      "componentType": 5126,
      "normalized": false,
      "count": 4,
      "min": [
        -0.0012536668218672276,
        -0.002951394533738494,
        -0.020065441727638245
      ],
      "max": [
        0.0011901217512786388,
        -0.0029513936024159193,
        -0.0030586719512939453
      ],
      "type": "VEC3"
    },
    {
      "bufferView": 16,
      "byteOffset": 0,
      "componentType": 5126,
      "normalized": false,
      "count": 4,
      "min": [
        0,
        0
      ],
      "max": [
        0,
        0
      ],
      "type": "VEC2"
    },
    {
      "bufferView": 17,
      "byteOffset": 0,
      "componentType": 5125,
      "normalized": false,
      "count": 6,
      "min": [
        0
      ],
      "max": [
        3
      ],
      "type": "SCALAR"
    },
    {
      "bufferView": 18,
      "byteOffset": 0,
      "componentType": 5126,
      "normalized": false,
      "count": 19721,
      "min": [
        -1,
        -1,
        -1
      ],
      "max": [
        1,
        1,
        1
      ],
      "type": "VEC3"
    },
    {
      "bufferView": 18,
      "byteOffset": 12,
      "componentType": 5126,
      "normalized": false,
      "count": 19721,
      "min": [
        -0.015031772665679455,
        -0.0030513713136315346,
        -0.06656204909086227
      ],
      "max": [
        0.01496822852641344,
        0.0019486402161419392,
        0.08343794196844101
      ],
      "type": "VEC3"
    },
    {
      "bufferView": 19,
      "byteOffset": 0,
      "componentType": 5126,
      "normalized": false,
      "count": 19721,
      "min": [
        0.125,
        0
      ],
      "max": [
        0.8750000596046448,
        1
      ],
      "type": "VEC2"
    },
    {
      "bufferView": 20,
      "byteOffset": 0,
      "componentType": 5125,
      "normalized": false,
      "count": 31005,
      "min": [
        0
      ],
      "max": [
        19720
      ],
      "type": "SCALAR"
    },
    {
      "bufferView": 21,
      "byteOffset": 0,
      "componentType": 5126,
      "normalized": false,
      "count": 88,
      "min": [
        0,
        -1,
        -4.677220744042643e-8
      ],
      "max": [
        0,
        -1,
        1.3618630667622256e-9
      ],
      "type": "VEC3"
    },
    {
      "bufferView": 21,
      "byteOffset": 12,
      "componentType": 5126,
      "normalized": false,
      "count": 88,
      "min": [
        -0.014031772501766682,
        -0.002697807038202882,
        0.014437943696975708
      ],
      "max": [
        0.013968228362500668,
        -0.002697807038202882,
        0.04243794083595276
      ],
      "type": "VEC3"
    },
    {
      "bufferView": 22,
      "byteOffset": 0,
      "componentType": 5126,
      "normalized": false,
      "count": 88,
      "min": [
        0.38333332538604736,
        0.9691073894500732
      ],
      "max": [
        0.6166667342185974,
        0.9916666150093079
      ],
      "type": "VEC2"
    },
    {
      "bufferView": 23,
      "byteOffset": 0,
      "componentType": 5125,
      "normalized": false,
      "count": 240,
      "min": [
        0
      ],
      "max": [
        87
      ],
      "type": "SCALAR"
    }
  ],
  "scene": 0,
  "scenes": [
    {
      "nodes": [
        11
      ],
      "name": "Sketchfab_Scene"
    }
  ],
  "nodes": [
    {
      "name": "PANEL 1_Material.008_0",
      "mesh": 0
    },
    {
      "name": "PANEL 1_Material.004_0",
      "mesh": 1
    },
    {
      "name": "PANEL 1_Material.006_0",
      "mesh": 2
    },
    {
      "name": "PANEL 1_Material.001_0",
      "mesh": 3
    },
    {
      "name": "PANEL 1_Material.003_0",
      "mesh": 4
    },
    {
      "name": "PANEL 1_Material.005_0",
      "mesh": 5
    },
    {
      "name": "PANEL 1_Material.002_0",
      "mesh": 6
    },
    {
      "name": "PANEL 1_Material.007_0",
      "mesh": 7
    },
    {
      "name": "PANEL 1",
      "children": [
        0,
        1,
        2,
        3,
        4,
        5,
        6,
        7
      ],
      "matrix": [
        100,
        0,
        0,
        0,
        0,
        -0.000013435885193757713,
        -100,
        0,
        0,
        100,
        -0.000013435885193757713,
        0,
        3.7365362644195557,
        -1,
        -0.7085419297218323,
        1
      ]
    },
    {
      "name": "RootNode",
      "children": [
        8
      ]
    },
    {
      "name": "9dac8db2144f4f33a296f6d781585e8a.fbx",
      "children": [
        9
      ],
      "matrix": [
        1,
        0,
        0,
        0,
        0,
        3.422854177870249e-8,
        0.9999999403953552,
        0,
        0,
        -0.9999999403953552,
        3.422854177870249e-8,
        0,
        0,
        0,
        0,
        1
      ]
    },
    {
      "name": "Sketchfab_model",
      "children": [
        10
      ],
      "matrix": [
        1,
        0,
        0,
        0,
        0,
        3.422854177870249e-8,
        -0.9999999403953552,
        0,
        0,
        0.9999999403953552,
        3.422854177870249e-8,
        0,
        0,
        -2.5227020472584627e-8,
        -3.310083585006396e-8,
        1
      ]
    }
  ],
  "meshes": [
    {
      "primitives": [
        {
          "material": 0,
          "mode": 4,
          "attributes": {
            "NORMAL": 0,
            "POSITION": 1,
            "TEXCOORD_0": 2
          },
          "indices": 3
        }
      ]
    },
    {
      "primitives": [
        {
          "material": 1,
          "mode": 4,
          "attributes": {
            "NORMAL": 4,
            "POSITION": 5,
            "TEXCOORD_0": 6
          },
          "indices": 7
        }
      ]
    },
    {
      "primitives": [
        {
          "material": 2,
          "mode": 4,
          "attributes": {
            "NORMAL": 8,
            "POSITION": 9,
            "TEXCOORD_0": 10
          },
          "indices": 11
        }
      ]
    },
    {
      "primitives": [
        {
          "material": 3,
          "mode": 4,
          "attributes": {
            "NORMAL": 12,
            "POSITION": 13,
            "TEXCOORD_0": 14
          },
          "indices": 15
        }
      ]
    },
    {
      "primitives": [
        {
          "material": 4,
          "mode": 4,
          "attributes": {
            "NORMAL": 16,
            "POSITION": 17,
            "TEXCOORD_0": 18
          },
          "indices": 19
        }
      ]
    },
    {
      "primitives": [
        {
          "material": 5,
          "mode": 4,
          "attributes": {
            "NORMAL": 20,
            "POSITION": 21,
            "TEXCOORD_0": 22
          },
          "indices": 23
        }
      ]
    },
    {
      "primitives": [
        {
          "material": 6,
          "mode": 4,
          "attributes": {
            "NORMAL": 24,
            "POSITION": 25,
            "TEXCOORD_0": 26
          },
          "indices": 27
        }
      ]
    },
    {
      "primitives": [
        {
          "material": 7,
          "mode": 4,
          "attributes": {
            "NORMAL": 28,
            "POSITION": 29,
            "TEXCOORD_0": 30
          },
          "indices": 31
        }
      ]
    }
  ],
  "materials": [
    {
      "name": "Material.008",
      "pbrMetallicRoughness": {
        "baseColorFactor": [
          0.615686274509804,
          0.5058823529411764,
          0.34901960784313724,
          1
        ],
        "metallicFactor": 0,
        "roughnessFactor": 0
      },
      "emissiveFactor": [
        0,
        0,
        0
      ],
      "alphaMode": "OPAQUE",
      "doubleSided": true,
      "extensions": {
        "KHR_materials_clearcoat": {
          "clearcoatFactor": 1,
          "clearcoatRoughnessFactor": 0.04
        }
      }
    },
    {
      "name": "Material.004",
      "pbrMetallicRoughness": {
        "baseColorFactor": [
          1,
          0,
          0.011764705882352941,
          1
        ],
        "metallicFactor": 0,
        "roughnessFactor": 0.86728995
      },
      "emissiveFactor": [
        1,
        0.06274509803921569,
        0.06274509803921569
      ],
      "alphaMode": "OPAQUE",
      "doubleSided": true
    },
    {
      "name": "Material.006",
      "pbrMetallicRoughness": {
        "baseColorFactor": [
          0.9921568627450981,
          0,
          0,
          1
        ],
        "metallicFactor": 0,
        "roughnessFactor": 0.9717677724
      },
      "emissiveFactor": [
        1,
        0.03529411764705882,
        0.03529411764705882
      ],
      "alphaMode": "OPAQUE",
      "doubleSided": true
    },
    {
      "name": "Material.001",
      "pbrMetallicRoughness": {
        "baseColorFactor": [
          0.8,
          0,
          0.011764705882352941,
          1
        ],
        "metallicFactor": 0,
        "roughnessFactor": 0.96
      },
      "emissiveFactor": [
        1,
        1,
        1
      ],
      "alphaMode": "OPAQUE",
      "doubleSided": false
    },
    {
      "name": "Material.003",
      "pbrMetallicRoughness": {
        "baseColorFactor": [
          0.043137254901960784,
          1,
          0,
          1
        ],
        "metallicFactor": 0,
        "roughnessFactor": 0.865279299
      },
      "emissiveFactor": [
        0.26666666666666666,
        1,
        0.023529411764705882
      ],
      "alphaMode": "OPAQUE",
      "doubleSided": true
    },
    {
      "name": "Material.005",
      "pbrMetallicRoughness": {
        "baseColorFactor": [
          1,
          0,
          0,
          1
        ],
        "metallicFactor": 0,
        "roughnessFactor": 0.9468030734
      },
      "emissiveFactor": [
        1,
        0.03529411764705882,
        0.03529411764705882
      ],
      "alphaMode": "OPAQUE",
      "doubleSided": true
    },
    {
      "name": "Material.002",
      "pbrMetallicRoughness": {
        "baseColorFactor": [
          0.32941176470588235,
          0.32941176470588235,
          0.32941176470588235,
          1
        ],
        "metallicFactor": 0,
        "roughnessFactor": 0
      },
      "emissiveFactor": [
        0,
        0,
        0
      ],
      "alphaMode": "OPAQUE",
      "doubleSided": true,
      "extensions": {
        "KHR_materials_clearcoat": {
          "clearcoatFactor": 1,
          "clearcoatRoughnessFactor": 0.04
        }
      }
    },
    {
      "name": "Material.007",
      "pbrMetallicRoughness": {
        "baseColorFactor": [
          1,
          0,
          0,
          1
        ],
        "metallicFactor": 0,
        "roughnessFactor": 0.8690485571
      },
      "emissiveFactor": [
        1,
        1,
        1
      ],
      "alphaMode": "OPAQUE",
      "doubleSided": true
    }
  ],
  "extensionsUsed": [
    "KHR_materials_clearcoat"
  ]
}